<svg width="501" height="406" viewBox="0 0 501 406" fill="none" xmlns="http://www.w3.org/2000/svg">
<g clip-path="url(#clip0_496:6332)">
<path d="M500.831 360.301H0.831055V360.601H500.831V360.301Z" fill="#EBEBEB"/>
<path d="M450.731 376.4H417.631V376.7H450.731V376.4Z" fill="#EBEBEB"/>
<path d="M274.031 373.301H261.131V373.601H274.031V373.301Z" fill="#EBEBEB"/>
<path d="M350.431 374.4H323.331V374.7H350.431V374.4Z" fill="#EBEBEB"/>
<path d="M416.631 367.2H360.531V367.5H416.631V367.2Z" fill="#EBEBEB"/>
<path d="M79.8311 378.7H53.3311V379H79.8311V378.7Z" fill="#EBEBEB"/>
<path d="M111.731 378.7H88.731V379H111.731V378.7Z" fill="#EBEBEB"/>
<path d="M192.631 373.2H131.831V373.5H192.631V373.2Z" fill="#EBEBEB"/>
<path d="M237.831 315.7H44.7311C41.6311 315.7 39.0311 313.1 39.0311 310V38.6004C39.0311 35.5004 41.6311 32.9004 44.7311 32.9004H237.831C240.931 32.9004 243.531 35.5004 243.531 38.6004V310C243.531 313.2 241.031 315.7 237.831 315.7ZM44.7311 33.1004C41.7311 33.1004 39.2311 35.5004 39.2311 38.6004V310C39.2311 313 41.6311 315.5 44.7311 315.5H237.831C240.831 315.5 243.331 313.1 243.331 310V38.6004C243.331 35.6004 240.931 33.1004 237.831 33.1004H44.7311Z" fill="#EBEBEB"/>
<path d="M454.131 315.7H261.031C257.931 315.7 255.331 313.1 255.331 310V38.6004C255.331 35.5004 257.931 32.9004 261.031 32.9004H454.131C457.231 32.9004 459.831 35.5004 459.831 38.6004V310C459.831 313.2 457.331 315.7 454.131 315.7ZM261.031 33.1004C258.031 33.1004 255.531 35.5004 255.531 38.6004V310C255.531 313 257.931 315.5 261.031 315.5H454.131C457.131 315.5 459.631 313.1 459.631 310V38.6004C459.631 35.6004 457.231 33.1004 454.131 33.1004H261.031Z" fill="#EBEBEB"/>
<path d="M467.931 172.1C471.231 160.8 470.631 149.3 466.931 139.1C469.831 135 472.031 130.4 473.531 125.4C480.231 102.2 468.031 77.9999 446.031 69.2999C441.831 38.8999 420.231 12.2999 388.731 3.19991C363.831 -4.00009 338.331 1.39991 319.031 15.4999C314.231 10.3999 308.031 6.49991 300.731 4.39991C278.931 -1.90009 256.231 10.6999 249.931 32.4999C248.831 36.0999 248.331 39.7999 248.331 43.3999C226.431 47.7999 207.631 63.9999 201.031 86.8999C195.031 107.5 200.331 128.7 213.231 144C211.531 147 210.231 150.2 209.231 153.7C202.131 178.4 216.331 204.3 241.131 211.4C249.331 213.8 257.531 213.8 265.231 211.9C274.331 224.4 287.531 234.2 303.531 238.8C324.131 244.7 345.231 241 362.031 230.4C369.531 247.9 375.731 274.1 362.431 299.9C410.731 295.2 445.731 248.8 438.531 206.3C452.331 199.9 463.331 187.9 467.931 172.1Z" fill="#EBEBEB"/>
<path d="M375.131 290.3C374.831 290.3 374.631 290.2 374.431 290C374.131 289.7 374.031 289.4 374.131 289C380.931 265.3 374.731 242.5 368.331 227.6L365.131 220.1L358.231 224.5C347.731 231.1 335.731 234.7 323.431 234.7C317.331 234.7 311.331 233.8 305.431 232.1C291.431 228.1 279.431 219.7 270.831 207.8L268.031 204L263.431 205.1C256.731 206.8 249.631 206.6 242.931 204.7C232.731 201.8 224.331 195.1 219.231 185.8C214.131 176.5 212.931 165.8 215.831 155.7C216.631 152.9 217.831 150.1 219.231 147.5L221.531 143.3L218.431 139.6C206.531 125.5 202.531 106.6 207.631 88.9C213.331 69.1 229.431 54.3 249.631 50.3L255.231 49.2L255.331 43.5C255.331 40.4 255.831 37.4 256.631 34.4C260.831 20 274.231 9.9 289.331 9.9C292.531 9.9 295.731 10.4 298.831 11.2C304.631 12.9 309.831 16 314.031 20.4L318.231 24.8L323.231 21.2C335.631 12 351.031 7 366.431 7C373.231 7 380.131 8 386.731 9.9C414.431 17.9 435.031 41.6 439.031 70.2L439.631 74.2L443.431 75.7C462.431 83.2 472.531 103.7 466.831 123.4C465.631 127.6 463.731 131.5 461.231 135.1L459.131 138.1L460.331 141.5C463.631 150.8 463.931 160.8 461.231 170.3C457.431 183.5 448.131 194.3 435.631 200L430.731 202.2L431.631 207.5C434.631 225.6 429.231 245.4 416.631 261.8C406.131 275.5 391.531 285.6 375.431 290.3C375.331 290.3 375.231 290.3 375.131 290.3ZM365.631 217.6C365.731 217.6 365.831 217.6 365.931 217.6C366.231 217.7 366.431 217.9 366.531 218.2L370.231 226.8C376.631 241.6 382.831 264.1 376.631 287.7C391.631 282.9 405.231 273.3 415.031 260.5C427.231 244.5 432.531 225.3 429.631 207.7L428.631 201.7C428.531 201.3 428.831 200.8 429.231 200.6L434.831 198C446.731 192.5 455.731 182.1 459.331 169.5C461.931 160.4 461.631 150.9 458.531 142L457.131 138.1C457.031 137.8 457.031 137.5 457.231 137.2L459.631 133.8C462.031 130.4 463.731 126.7 464.931 122.7C470.331 104 460.731 84.6 442.731 77.5L438.431 75.8C438.131 75.7 437.831 75.4 437.831 75L437.231 70.4C433.331 42.6 413.431 19.5 386.431 11.7C379.731 9.9 373.031 9 366.431 9C351.431 9 336.531 13.9 324.331 22.8L318.631 26.9C318.231 27.2 317.631 27.1 317.331 26.8L312.531 21.7C308.631 17.6 303.731 14.6 298.231 13.1C295.331 12.3 292.331 11.8 289.331 11.8C275.131 11.8 262.531 21.3 258.531 35C257.731 37.8 257.331 40.6 257.231 43.5L257.131 50C257.131 50.5 256.831 50.9 256.331 51L250.031 52.3C230.531 56.2 215.031 70.5 209.631 89.5C204.731 106.5 208.631 124.8 220.031 138.3L223.631 142.5C223.931 142.8 223.931 143.3 223.731 143.6L221.031 148.4C219.631 150.9 218.531 153.5 217.731 156.2C214.931 165.8 216.131 176 220.931 184.8C225.831 193.6 233.731 200 243.431 202.7C249.731 204.5 256.531 204.7 262.831 203.1L268.031 201.8C268.431 201.7 268.831 201.9 269.131 202.2L272.331 206.6C280.631 218.1 292.231 226.2 305.831 230.1C311.531 231.7 317.431 232.6 323.331 232.6C335.231 232.6 346.931 229.2 357.131 222.8L365.031 217.8C365.231 217.7 365.431 217.6 365.631 217.6Z" fill="white"/>
<path d="M305.031 124.1L278.231 119.9L278.631 117.2C279.331 112.6 280.431 109 281.931 106.3C283.431 103.6 285.331 101.3 287.731 99.1999C290.131 97.1999 295.431 93.6999 303.431 88.8999C307.731 86.3999 310.031 83.7999 310.431 81.2999C310.831 78.6999 310.431 76.5999 309.031 74.8999C307.731 73.1999 305.531 72.0999 302.431 71.6999C299.131 71.1999 296.131 71.8999 293.631 73.6999C291.131 75.5999 289.131 79.1999 287.631 84.5999L260.831 76.9999C263.331 67.0999 268.231 59.5999 275.631 54.3999C282.931 49.2999 293.231 47.6999 306.331 49.7999C316.631 51.3999 324.531 54.7999 330.131 60.0999C337.831 67.1999 340.831 75.5999 339.331 85.1999C338.731 89.1999 337.031 92.8999 334.231 96.2999C331.431 99.6999 326.231 103.5 318.531 107.8C313.231 110.8 309.731 113.4 308.131 115.5C306.631 117.6 305.631 120.5 305.031 124.1ZM276.231 126.9L304.931 131.4L301.031 156.7L272.331 152.2L276.231 126.9Z" fill="white"/>
<path d="M373.431 163.4L358.531 151.3L359.731 149.8C361.831 147.3 363.731 145.4 365.631 144.3C367.531 143.2 369.531 142.4 371.731 142.1C373.931 141.7 378.331 141.5 384.931 141.4C388.431 141.4 390.731 140.7 391.931 139.2C393.131 137.8 393.531 136.3 393.331 134.8C393.131 133.3 392.131 131.9 390.431 130.5C388.531 129 386.531 128.4 384.331 128.6C382.131 128.8 379.631 130.4 376.831 133.1L363.131 119C368.131 113.8 373.831 111 380.131 110.4C386.431 109.9 393.231 112.5 400.531 118.5C406.231 123.1 409.831 128 411.431 133.2C413.631 140.3 412.531 146.5 408.131 151.8C406.331 154 404.031 155.7 401.131 156.7C398.231 157.8 393.731 158.3 387.531 158.2C383.231 158.2 380.131 158.5 378.431 159.2C376.731 160 375.031 161.3 373.431 163.4ZM354.831 154.9L370.731 167.8L359.331 181.9L343.431 169L354.831 154.9Z" fill="white"/>
<path d="M377.631 76.6996L371.231 67.8996L372.131 67.2996C373.631 66.1996 374.931 65.4996 376.131 65.0996C377.331 64.7996 378.531 64.5996 379.831 64.6996C381.131 64.7996 383.531 65.2996 387.231 66.1996C389.131 66.6996 390.531 66.5996 391.431 65.9996C392.231 65.3996 392.731 64.5996 392.831 63.7996C392.931 62.9996 392.631 61.9996 391.831 60.9996C391.031 59.8996 390.031 59.2996 388.731 59.0996C387.431 58.8996 385.831 59.3996 383.931 60.4996L378.431 50.6996C381.931 48.5996 385.531 47.7996 389.031 48.4996C392.531 49.0996 395.931 51.5996 399.131 55.8996C401.631 59.2996 402.831 62.4996 403.031 65.5996C403.231 69.7996 401.731 73.0996 398.531 75.3996C397.231 76.3996 395.731 76.8996 393.931 77.0996C392.131 77.2996 389.631 76.8996 386.231 75.8996C383.831 75.1996 382.131 74.9996 381.131 75.0996C379.931 75.3996 378.831 75.8996 377.631 76.6996ZM368.631 69.3996L375.531 78.7996L367.231 84.8996L360.331 75.4996L368.631 69.3996Z" fill="white"/>
<path d="M129.131 201.5C120.831 201.5 112.531 199.2 105.131 194.8C95.0311 188.8 87.8311 179.4 85.3311 169C77.1311 168.4 69.5311 164.4 64.4311 157.8C60.7311 153.1 58.6311 147.5 58.3311 141.5C56.1311 140 54.2311 138.2 52.6311 136.1C44.7311 125.9 45.7311 111.7 54.8311 102.8C51.0311 86.4995 57.0311 69.4995 70.2311 59.1995C80.5311 51.1995 93.7311 48.2995 106.531 51.3995C108.031 47.9995 110.331 45.0995 113.231 42.7995C117.931 39.1995 123.731 37.5995 129.631 38.2995C135.531 38.9995 140.831 41.9995 144.431 46.6995C145.531 48.0995 146.431 49.6995 147.231 51.2995C159.231 49.2995 171.331 53.9995 178.831 63.6995C185.531 72.2995 187.531 83.5995 184.231 93.9995C185.531 95.0995 186.731 96.3995 187.731 97.6995C196.231 108.7 194.231 124.5 183.331 133C180.031 135.6 176.031 137.3 171.831 138C169.631 146.2 164.931 153.2 158.331 158.4C149.931 165 139.131 167.7 128.531 166C128.431 175.7 130.731 188.9 141.531 198.3C141.731 198.5 141.831 198.8 141.831 199.1C141.731 199.4 141.531 199.6 141.331 199.7C137.431 200.9 133.331 201.5 129.131 201.5ZM96.5311 51.8995C87.5311 51.8995 78.7311 54.8995 71.3311 60.5995C58.5311 70.5995 52.7311 87.1995 56.6311 103C56.7311 103.3 56.6311 103.6 56.4311 103.8C47.5311 112.2 46.5311 125.7 54.0311 135.3C55.6311 137.3 57.5311 139.1 59.7311 140.5C59.9311 140.6 60.0311 140.9 60.1311 141.1C60.3311 146.9 62.3311 152.3 65.9311 156.9C70.8311 163.2 78.2311 167.1 86.2311 167.5C86.6311 167.5 86.9311 167.8 86.9311 168.1C89.1311 178.3 96.1311 187.5 106.131 193.5C116.431 199.6 128.631 201.5 139.731 198.6C129.031 188.6 127.031 174.9 127.231 165.1C127.231 164.9 127.331 164.7 127.531 164.5C127.731 164.4 127.931 164.3 128.131 164.3C138.531 166.3 149.231 163.7 157.531 157.2C164.031 152.1 168.631 145.2 170.631 137.1C170.731 136.8 170.931 136.6 171.331 136.5C175.431 135.9 179.331 134.3 182.531 131.8C192.831 123.8 194.631 109 186.731 98.6995C185.631 97.2995 184.431 95.9995 183.031 94.8995C182.731 94.6995 182.631 94.3995 182.831 93.9995C186.131 83.8995 184.331 72.9995 177.831 64.5995C170.531 55.2995 158.831 50.7995 147.131 52.8995C146.731 52.9995 146.431 52.7995 146.231 52.3995C145.531 50.6995 144.531 49.0995 143.431 47.5995C140.031 43.1995 135.131 40.4995 129.631 39.7995C124.131 39.0995 118.731 40.5995 114.331 43.9995C111.431 46.1995 109.231 49.1995 107.831 52.5995C107.731 52.9995 107.331 53.1995 106.931 53.0995C103.531 52.3995 100.031 51.8995 96.5311 51.8995Z" fill="#E6E6E6"/>
<path d="M101.431 117.899L87.6311 121.199L87.3311 119.799C86.7311 117.399 86.6311 115.499 86.8311 113.899C87.0311 112.299 87.5311 110.799 88.2311 109.299C89.0311 107.799 90.8311 105.199 93.8311 101.199C95.4311 99.0993 96.0311 97.3993 95.7311 96.0993C95.4311 94.7993 94.7311 93.7993 93.8311 93.2993C92.8311 92.6993 91.6311 92.6993 90.0311 92.9993C88.3311 93.3993 87.0311 94.2993 86.1311 95.6993C85.2311 97.0993 85.0311 99.2993 85.3311 102.199L70.8311 103.799C70.1311 98.4993 71.0311 93.8993 73.5311 89.8993C76.0311 85.9993 80.7311 83.1993 87.5311 81.5993C92.8311 80.3993 97.3311 80.4993 101.131 81.8993C106.231 83.7993 109.431 87.2993 110.531 92.2993C111.031 94.3993 110.931 96.4993 110.231 98.6993C109.531 100.899 107.731 103.799 104.931 107.399C102.931 109.899 101.731 111.799 101.431 113.199C100.931 114.399 100.931 115.999 101.431 117.899ZM88.0311 124.899L102.831 121.399L105.931 134.399L91.0311 137.999L88.0311 124.899Z" fill="#EBEBEB"/>
<path d="M136.631 88.6999L127.031 85.7999L127.331 84.7999C127.831 83.1999 128.431 81.8999 129.131 80.9999C129.831 80.0999 130.631 79.2999 131.631 78.6999C132.631 78.0999 134.731 77.0999 137.931 75.7999C139.631 75.0999 140.631 74.2999 140.931 73.3999C141.231 72.4999 141.131 71.6999 140.731 70.9999C140.331 70.2999 139.631 69.7999 138.431 69.4999C137.231 69.0999 136.131 69.1999 135.131 69.7999C134.131 70.3999 133.231 71.5999 132.331 73.4999L122.931 69.2999C124.331 65.7999 126.531 63.2999 129.531 61.7999C132.431 60.2999 136.331 60.2999 141.031 61.6999C144.731 62.7999 147.431 64.4999 149.231 66.6999C151.631 69.6999 152.331 72.8999 151.331 76.3999C150.931 77.7999 150.131 79.0999 148.931 80.1999C147.731 81.2999 145.631 82.3999 142.631 83.5999C140.531 84.3999 139.131 85.1999 138.431 85.8999C137.531 86.3999 137.031 87.3999 136.631 88.6999ZM125.931 88.2999L136.231 91.3999L133.431 100.5L123.131 97.3999L125.931 88.2999Z" fill="#EBEBEB"/>
<path d="M250.831 405.5C357.919 405.5 444.731 400.441 444.731 394.2C444.731 387.96 357.919 382.9 250.831 382.9C143.743 382.9 56.9311 387.96 56.9311 394.2C56.9311 400.441 143.743 405.5 250.831 405.5Z" fill="#F5F5F5"/>
<path d="M158.431 225.4L157.531 225C158.331 223 158.831 221.4 159.031 220L160.031 220.1C159.831 221.6 159.331 223.3 158.431 225.4ZM158.031 213.9C156.131 209.6 152.531 206.9 147.631 206.1L147.831 205.1C153.031 206 156.931 208.9 159.031 213.4L158.031 213.9Z" fill="#7E6BC4"/>
<path d="M152.831 235.4L143.031 239.9L142.631 238.9C141.831 237.2 141.431 235.8 141.331 234.6C141.231 233.4 141.331 232.2 141.731 231C142.131 229.8 143.131 227.5 144.731 224.1C145.631 222.3 145.831 221 145.431 220C145.031 219.1 144.431 218.4 143.631 218.2C142.831 217.9 141.831 218.1 140.731 218.6C139.531 219.2 138.631 220 138.231 221.2C137.831 222.4 137.931 224 138.631 226.1L128.031 229.4C126.731 225.5 126.731 222 128.031 218.6C129.331 215.3 132.431 212.5 137.231 210.3C141.031 208.6 144.431 208 147.431 208.5C151.531 209.2 154.431 211.3 156.031 214.8C156.731 216.3 156.931 217.9 156.731 219.6C156.531 221.3 155.631 223.8 154.031 226.9C152.931 229.1 152.331 230.7 152.231 231.7C151.931 232.9 152.231 234.1 152.831 235.4ZM143.831 242.7L154.331 237.9L158.531 247.2L148.031 252L143.831 242.7Z" fill="#7E6BC4"/>
<path d="M128.431 257.7L123.431 264.5L122.831 264C121.631 263.1 120.831 262.3 120.331 261.5C119.831 260.7 119.431 259.8 119.231 258.9C119.031 257.9 118.831 256 118.631 253.1C118.531 251.6 118.231 250.5 117.531 250.1C116.831 249.6 116.231 249.4 115.531 249.6C114.931 249.7 114.231 250.2 113.731 251C113.131 251.8 112.831 252.8 113.031 253.7C113.231 254.7 113.931 255.7 115.131 256.9L109.131 263.2C106.731 261.1 105.431 258.6 105.031 255.9C104.631 253.1 105.731 250.1 108.131 246.8C110.031 244.2 112.131 242.5 114.431 241.7C117.531 240.6 120.231 241 122.731 242.8C123.731 243.5 124.531 244.5 125.031 245.8C125.531 247.1 125.831 249 125.931 251.8C126.031 253.7 126.231 255 126.531 255.8C126.931 256.3 127.531 257 128.431 257.7ZM125.131 266L130.531 258.7L136.931 263.4L131.531 270.7L125.131 266Z" fill="#7E6BC4"/>
<path d="M234.931 390.601C233.331 390.601 231.731 389.701 230.931 388.201C226.931 380.401 221.831 371.301 212.731 361.501C211.631 360.301 211.331 358.701 211.731 357.201C215.131 345.501 220.431 329.501 220.431 329.301C221.231 326.901 223.731 325.701 226.131 326.501C228.531 327.301 229.731 329.801 228.931 332.201C228.931 332.301 224.331 346.101 221.031 357.401C229.431 366.901 234.531 375.901 238.831 384.201C239.931 386.401 239.131 389.101 236.931 390.201C236.331 390.401 235.631 390.601 234.931 390.601Z" fill="#7E6BC4"/>
<path d="M242.431 394.2H207.631L226.031 383.7L241.531 384.3L242.431 394.2Z" fill="#263238"/>
<path d="M261.231 325.4C261.331 339.3 248.231 351.9 231.831 353.5C215.431 355.1 202.131 345.1 202.031 331.2C201.931 317.3 215.031 304.7 231.431 303.1C247.731 301.4 261.131 311.4 261.231 325.4Z" fill="#263238"/>
<path d="M152.531 311.901C150.731 311.901 149.131 310.901 148.431 309.101C147.531 306.801 148.531 304.201 150.831 303.201C153.431 302.101 153.831 299.501 153.831 299.401C154.031 297.401 155.531 295.801 157.531 295.401C158.631 295.201 159.631 294.901 160.831 294.601C166.931 292.801 174.431 290.601 198.131 297.301C221.531 284.201 221.731 259.701 221.731 258.601C221.731 256.101 223.731 254.101 226.231 254.101C228.731 254.101 230.731 256.101 230.731 258.501C230.731 259.801 230.631 290.601 200.731 306.001C199.731 306.501 198.531 306.601 197.431 306.301C174.831 299.801 168.431 301.601 163.331 303.101C162.831 303.201 162.431 303.401 161.931 303.501C160.831 306.301 158.531 309.601 154.331 311.401C153.631 311.801 153.031 311.901 152.531 311.901Z" fill="#263238"/>
<path d="M204.931 279.8C196.431 246 173.731 158.7 246.431 153.4C311.631 148.6 329.531 235.4 333.831 265.4C336.331 282.9 337.231 298.8 337.331 311.2C337.531 327.2 326.231 341 310.531 344.2C275.031 351.4 241.431 352.4 218.831 343.5C212.731 341.1 209.031 334.8 209.631 328.3C210.431 318.7 210.431 302 204.931 279.8Z" fill="#7E6BC4"/>
<path opacity="0.1" d="M333.831 265.501C329.731 237.201 313.631 158.501 257.131 153.501C250.531 152.901 244.131 156.201 241.031 162.001C238.531 166.901 238.631 172.801 242.331 178.601C254.731 197.901 284.431 264.601 279.931 300.901C277.931 317.401 267.531 330.601 276.531 349.201C287.431 348.301 298.831 346.601 310.431 344.201C326.131 341.001 337.331 327.201 337.231 311.201C337.231 298.901 336.331 283.001 333.831 265.501Z" fill="black"/>
<path d="M324.031 311.7C323.831 311.7 323.631 311.5 323.631 311.3C323.431 295.8 322.231 280.5 320.131 265.5C309.331 190.8 280.231 153.1 236.031 156.3C235.831 156.3 235.531 156.1 235.531 155.9C235.531 155.7 235.731 155.4 235.931 155.4C280.731 152.1 310.131 190.1 321.031 265.3C323.231 280.3 324.431 295.7 324.531 311.2C324.531 311.5 324.331 311.7 324.031 311.7Z" fill="#263238"/>
<path d="M345.531 327.801C345.631 341.701 332.531 354.301 316.131 355.901C299.731 357.501 286.431 347.501 286.331 333.601C286.231 319.701 299.331 307.101 315.731 305.501C332.131 303.801 345.431 313.801 345.531 327.801Z" fill="#263238"/>
<path d="M326.131 390.601C324.531 390.601 322.931 389.701 322.131 388.201C318.131 380.401 313.031 371.301 303.931 361.501C302.831 360.301 302.531 358.701 302.931 357.201C306.331 345.501 311.631 329.501 311.631 329.301C312.431 326.901 314.931 325.701 317.331 326.501C319.731 327.301 320.931 329.801 320.131 332.201C320.131 332.301 315.531 346.101 312.231 357.401C320.631 366.901 325.731 375.901 330.031 384.201C331.131 386.401 330.331 389.101 328.131 390.201C327.531 390.401 326.831 390.601 326.131 390.601Z" fill="#7E6BC4"/>
<path d="M316.731 253.801C315.131 253.801 313.531 252.901 312.731 251.401C311.631 249.201 312.431 246.501 314.631 245.301C315.531 244.801 335.031 234.201 340.531 208.501C327.531 203.101 304.131 190.801 299.031 184.601C298.531 184.001 298.231 183.301 298.031 182.501C297.931 181.801 297.031 176.501 299.031 171.501L296.631 166.901C295.531 164.701 296.331 162.001 298.531 160.901C300.731 159.801 303.431 160.601 304.531 162.801L307.931 169.401C308.631 170.801 308.631 172.501 307.731 173.801C306.631 175.501 306.531 178.101 306.631 179.701C312.431 184.901 335.631 197.201 347.031 201.501C349.031 202.201 350.231 204.301 349.931 206.401C344.831 239.201 319.831 252.701 318.731 253.201C318.131 253.701 317.431 253.801 316.731 253.801Z" fill="#263238"/>
<path d="M302.431 184.101C302.031 184.101 301.631 184.001 301.231 183.701C300.231 183.001 299.931 181.601 300.531 180.601C300.731 180.401 304.431 174.801 310.031 173.301C311.231 173.001 312.431 173.701 312.731 174.901C313.031 176.101 312.331 177.301 311.131 177.601C307.231 178.701 304.231 183.001 304.231 183.101C303.831 183.701 303.131 184.101 302.431 184.101Z" fill="#263238"/>
<path d="M333.631 394.2H298.831L317.231 383.7L332.731 384.3L333.631 394.2Z" fill="#263238"/>
<path d="M260.728 260.216C273.876 259.053 283.686 248.521 282.64 236.693C281.593 224.865 270.085 216.22 256.937 217.384C243.789 218.548 233.979 229.08 235.026 240.907C236.073 252.735 247.58 261.38 260.728 260.216Z" fill="white"/>
<path d="M256.316 252.437C259.822 251.439 261.191 245.462 259.375 239.089C257.559 232.715 253.246 228.358 249.74 229.357C246.235 230.355 244.865 236.332 246.681 242.705C248.497 249.079 252.811 253.436 256.316 252.437Z" fill="#263238"/>
<path d="M231.631 242.801C246.731 240.901 276.631 232.301 281.531 228.901C277.631 217.501 259.531 207.801 243.431 213.301C228.831 218.201 231.631 242.801 231.631 242.801Z" fill="#263238"/>
<path d="M234.531 250.101C253.231 246.501 277.631 240.601 284.631 236.701C284.231 248.901 280.631 261.301 261.531 265.501C245.931 268.901 234.531 250.101 234.531 250.101Z" fill="#263238"/>
<path d="M224.831 248.9C225.431 258.5 218.731 265.001 209.831 263.601C201.031 262.101 193.431 253.201 192.831 243.601C192.231 234.001 198.931 227.5 207.831 228.9C216.631 230.4 224.231 239.4 224.831 248.9Z" fill="white"/>
<path d="M209.131 246.601C210.231 252.001 209.331 256.401 206.931 256.601C204.631 256.801 201.731 252.501 200.631 247.201C199.531 241.801 200.431 237.401 202.831 237.201C205.231 237.001 208.031 241.301 209.131 246.601Z" fill="#263238"/>
<path d="M190.531 244.601C200.631 245.801 220.731 244.501 224.131 242.601C221.631 232.901 209.631 221.901 198.831 223.301C189.031 224.601 190.531 244.601 190.531 244.601Z" fill="#263238"/>
<path d="M192.431 250.9C205.031 251.5 221.431 251.2 226.131 249.4C225.731 259 223.131 268.2 210.331 268C199.831 267.9 192.431 250.9 192.431 250.9Z" fill="#263238"/>
<path d="M264.931 207.2C246.031 207.2 233.531 197.9 232.831 197.4C230.831 195.9 230.431 193.101 231.931 191.101C233.431 189.101 236.231 188.7 238.231 190.2C238.431 190.4 253.331 201.201 274.031 197.301C276.431 196.801 278.831 198.4 279.231 200.9C279.731 203.3 278.131 205.701 275.631 206.101C271.931 206.901 268.331 207.2 264.931 207.2Z" fill="#263238"/>
<path d="M184.731 199.5C184.231 199.5 183.731 199.4 183.231 199.2C180.931 198.4 179.731 195.8 180.531 193.5C182.931 186.9 186.831 182.6 192.231 180.7C202.031 177.3 212.531 183.9 213.031 184.2C215.131 185.5 215.731 188.3 214.431 190.4C213.131 192.5 210.331 193.1 208.231 191.8C206.231 190.5 199.831 187.6 195.131 189.2C192.431 190.1 190.431 192.5 188.931 196.5C188.231 198.4 186.531 199.5 184.731 199.5Z" fill="#263238"/>
<path d="M220.031 275.2C219.931 275.2 219.831 275.2 219.631 275.1C218.931 274.9 218.531 274.2 218.731 273.5C218.731 273.4 219.631 270.5 223.331 268.6C228.431 265.9 236.331 266.5 246.631 270.2C247.331 270.5 247.731 271.2 247.431 271.9C247.131 272.6 246.431 273 245.731 272.7C233.931 268.4 227.731 269.3 224.731 270.9C222.031 272.2 221.431 274.1 221.431 274.2C221.131 274.8 220.631 275.2 220.031 275.2Z" fill="#263238"/>
<path d="M177.731 270.301C151.631 272.601 132.931 283.501 132.931 283.501C140.631 282.001 168.331 316.201 175.431 342.601C188.531 337.701 203.831 334.401 220.131 331.801C210.231 304.601 192.131 273.801 177.731 270.301Z" fill="#7E6BC4"/>
<path opacity="0.6" d="M177.731 270.301C151.631 272.601 132.931 283.501 132.931 283.501C140.631 282.001 168.331 316.201 175.431 342.601C188.531 337.701 203.831 334.401 220.131 331.801C210.231 304.601 192.131 273.801 177.731 270.301Z" fill="white"/>
<path d="M177.731 270.301C160.631 268.401 132.931 282.701 132.931 282.701C128.031 285.801 129.331 291.701 132.031 294.201C134.631 290.501 163.231 280.901 174.031 279.601C168.631 274.601 173.631 271.001 177.731 270.301Z" fill="#7E6BC4"/>
<path opacity="0.2" d="M177.731 270.301C160.631 268.401 132.931 282.701 132.931 282.701C128.031 285.801 129.331 291.701 132.031 294.201C134.631 290.501 163.231 280.901 174.031 279.601C168.631 274.601 173.631 271.001 177.731 270.301Z" fill="white"/>
<path d="M152.531 311.9C151.031 311.9 149.631 311.2 148.731 309.9C145.431 304.9 147.531 297.3 147.931 295.8C148.631 293.4 151.131 292.1 153.531 292.8C155.931 293.5 157.231 296 156.531 298.4C155.831 300.9 155.631 304.1 156.231 305C157.631 307.1 157.031 309.9 154.931 311.2C154.131 311.7 153.331 311.9 152.531 311.9Z" fill="#263238"/>
</g>
<defs>
<clipPath id="clip0_496:6332">
<rect width="500" height="405.5" fill="white" transform="translate(0.831055)"/>
</clipPath>
</defs>
</svg>